<?xml version="1.0" encoding="utf-8"?>
<!-- Generator: Adobe Illustrator 24.0.2, SVG Export Plug-In . SVG Version: 6.00 Build 0)  -->
<svg version="1.1" id="Layer_1" xmlns="http://www.w3.org/2000/svg" xmlns:xlink="http://www.w3.org/1999/xlink" x="0px" y="0px"
	 viewBox="0 0 737.7 86" style="enable-background:new 0 0 737.7 86;" xml:space="preserve">
<style type="text/css">
	.st0{fill:#98E3F4;}
	.st1{fill:#7CC636;}
	.st2{opacity:0.1;fill:#070707;enable-background:new    ;}
	.st3{fill:#43B3AC;stroke:#43B3AC;stroke-miterlimit:10;}
</style>
<g>
	<g>
		<ellipse class="st0" cx="345.1" cy="43" rx="42.5" ry="42.5"/>
		<path class="st1" d="M313.1,26.3c-0.4,3.4,0,3,0,3c2.6,2.5,2.7,4.2,2.6,4.9c-0.1,0.5,0,1,0.2,1.4c0.3,0.6,0.7,1.1,1.2,1.4
			c0.9,0.7,1.7,1.5,2.4,2.3c1.7,2,3.7,2.7,3.7,2.7l1.6,0.9c0.5,0.3,0.8,0.7,1,1.3c0.3,1.3,1.2,1.8,2,2c0.7,0.1,1.1,0.7,1.2,1.4
			c-0.9,0.7-1.4,1.5-1.8,2.2c-0.5,1-0.5,2.2,0.1,3.3l1.5,2.7c1.3,2,1.3,2.8,1.1,3.1c-0.1,0.2-0.2,0.5-0.3,0.7l-1.7,5.1l-2.7,5.5
			c-1.7,4.6,0.2,5.8,0.2,5.8c0.8,2.6,3.7,0.7,3.7,0.7c-2.2,0.1-1.4-2.7-1.4-2.7c0.4-0.3,1-1,1.4-1.5c0.2-0.2,0.1-0.5-0.1-0.6
			c-1-0.8,0.9-1.3,0.9-1.3l0.3-1.6l0.8,0.2l0.5-1.3l0.9,0.2c0.4,0.1,0.9-0.1,1.2-0.4l0,0c0.2-0.2,0.2-0.5,0.1-0.8
			c-0.8-2.2-0.1-1.8,0.5-1.2c0.4,0.4,1.1,0.4,1.6,0.1l2-1.5l0.7-1.8c0.2-0.5,0.7-0.8,1.2-0.7c0.7,0.2,1.4,0.1,1.9,0
			c0.5-0.1,0.9-0.6,1-1.1l0.5-1.8c0.2-0.7,0.6-1.3,1.2-1.6c0.9-0.6,1.2-1.7,1.2-1.7l-1.7-1.4c-0.7-0.6-1.6-1-2.5-1.1
			c-1.8-0.3-1.1-1.8-1.1-1.8l-0.6-1.4c-0.3-0.8-1-1.4-1.9-1.6l-0.7-0.1l-1.4-1.4c-1.6-0.3-2.6-1.2-2.6-1.2c-0.8-1.3-2.1-0.4-2.1-0.4
			c-2.7,1.9-3.4-2.2-3.4-2.2l-1.4-2c0.8-1.8-1.6-0.4-1.6-0.4c-2.9,0.1-1.2-3.6-1.2-3.6c0.6-1.8,2.8-1.3,4.2-0.7
			c0.8,0.4,1.8,0.3,2.6-0.2c0.5-0.3,1-0.6,1.4-0.9c0.5-0.3,0.8-0.8,1-1.3c0.2-1,1.1-1.4,1.9-1.6c0.9-0.2,1.7-0.7,2.4-1.2l0.3-0.3
			c1.1-0.9,3.6-0.5,5-0.2c0.5,0.1,0.9-0.3,0.9-0.8l-0.5-3.8l-1.5-3.2c-0.6-1.2-1.6-2.2-2.9-2.6l-0.3-0.1c-3.5-5.6-3.2,0.9-3.2,0.9
			l-1.3,1.3c-0.7,0.7-1.8,0.7-2.6,0l-1.3-1.2c-2.2-1.2-1.1-5.1-1.1-5.1l1.1-0.8c0.4-0.3,0.9-0.3,1.3,0l1.8,1.2
			c0.4,0.3,0.9,0.1,1-0.4l0.1-0.6c0.1-0.7,0-1.4-0.2-2l-1.1-2.3L330,8.8c-0.4-0.3-0.9-0.2-1.2,0.2c-0.4,0.6-1.2,0.9-2,0.7l-3.3-0.9
			l-2.2-1.1c-4.1,2.7-7.7,6.2-10.6,10.1c0.6,1.3,1.2,2.6,1.6,3.7C313.1,23,313.3,24.7,313.1,26.3z"/>
		<path class="st1" d="M343.2,1.9c0.8,0.3,1.5,0.9,1.8,1.8c0.5,1.2,0.9,2.9,0.4,3.7l-0.3,3.6l0.1,2.1c0,0-0.7,6.8,2.1,8.1
			c0.3,0.1,0.7,0,0.9-0.3l1.9-2.8c0.3-0.5,0.9-0.8,1.5-0.8c0.5,0,1.3-0.3,2.3-1.3c0.4-0.4,0.9-0.7,1.5-0.7c1,0,2.6-0.4,3.6-3.4
			l1.5-2.2c0.7-1,1.1-2.2,1.3-3.4l0.3-2.1c-5.3-2.3-11.1-3.6-17.2-3.6c-1.2,0-2.4,0.1-3.6,0.2C341.8,1.2,342.4,1.6,343.2,1.9z"/>
		<path class="st1" d="M380.9,54.6c-0.4-0.1-0.9-0.2-1.5-0.3c-0.8-0.1-1.6-0.6-1.8-1.4l-1.3-3.4l-0.6-2.6c-0.2-0.7-0.6-1.3-1.2-1.7
			l-1.7-1.2c-0.6-0.4-1.4-0.5-2.1-0.3c-0.5,0.2-1.2,0.1-2.2-0.7c0,0-1-0.2-1.3-1.1c-0.3-0.8-1-1.4-1.9-1.7l-2.9-0.7l-1.8,0.7
			l-1.3,0.2l-0.8,1.9c0,0-5.1,2.5-4,6.7c0,0,0.7,4,3.8,4.2c0,0,6,0.1,5,1.5l0.9,5c0,0,0.9,0.7-0.3,2.8c-0.3,0.6-0.5,1.2-0.4,1.9
			l0.5,4.6c0,0,0.1,4.1,2.3,3c0,0,3.2,0.4,4-1.8l1.5-1.9l0.8-2.2l1.4-0.5c0.6-0.3,1.1-0.9,1.1-1.6c0-1.3,0.3-3.4,2-4.2l4.2-3.6
			C381.7,55.7,381.6,54.8,380.9,54.6z"/>
		<path class="st1" d="M383.2,24.2c-0.3,0.4-0.8,0.6-1.3,0.4l-0.5-0.2c-0.3-0.1-0.4-0.4-0.4-0.6l-0.1-1.2c0-0.1,0.1-0.1,0.1,0l0.4,1
			c0.1,0.2,0.3,0.2,0.5,0.1l0.5-0.7c0,0,0-0.1,0.1-0.1c-1.2-2.1-2.5-4.2-4-6.1c-0.1,0-0.2,0.1-0.3,0.1l-3.1,1.5
			c-1.3,0.6-2.5,1.5-3.4,2.7l-2,2.5c-3.1,2-0.8,4.2-0.8,4.2l-1.2,2.5l-1.5,1.3L365,30c-0.4-0.5-0.6-1.2-0.5-1.9l0.4-2.2
			c0.1-0.5-0.4-0.9-0.9-0.8c-1,0.3-1.5,1-1.6,1.7c-0.2,0.7-0.6,1.3-1.2,1.8c-2.3,1.8,1.3,2.3,1.3,2.3l-0.2,2.4l0.4,1.9
			c0.1,0.4-0.3,0.8-0.7,0.7l-0.9-0.2c-0.8-0.2-1.6,0.2-1.9,1l-0.2,0.5c-0.2,0.6,0.2,1.2,0.9,1.2l2.6,0c0.4,0,0.7-0.2,0.9-0.4
			c0.7-0.8,1.6-1.3,2.6-1.5l1.1-0.2l0.5,0c1-0.1,1.9,0.4,2.4,1.3l0.6,1c0.4,0.6,1.1,1,1.9,0.9l1.7-0.3l1.7-1.7l1.9,0.1
			c4.3,4.3,0.3,2.8,0.3,2.8l-1-0.2c-0.8-0.2-1.6,0.1-2.2,0.6l-0.5,0.4c-0.3,0.2-0.2,0.6,0.1,0.7l1.8,0.6c0.3,0.1,0.5,0.4,0.5,0.8
			l-0.3,2.6c-0.1,0.8,0,1.6,0.3,2.3l1.5,3.2c0.4,0.9,1.3,1.6,2.3,1.9l1.2,0.3c0.8,0.2,1.6,0,2.2-0.5l0.7-0.6
			c0.4-0.3,0.5-0.9,0.2-1.3l-0.7-1.1c-0.3-0.4-0.8-0.7-1.3-0.6c-0.3,0-0.6-0.2-0.6-0.5l-0.2-1.6c0-0.3,0.3-0.5,0.5-0.3l1.8,1.4
			c0.4,0.3,0.9,0.6,1.4,0.9l1.2,0.6c0.3-2.2,0.5-4.4,0.5-6.6C387.6,36.3,386,29.9,383.2,24.2z"/>
		<path class="st2" d="M366.5,6.3c3.7,6.3,5.8,13.6,5.8,21.4c0,23.5-19,42.5-42.5,42.5c-7.8,0-15.1-2.1-21.4-5.8
			c7.4,12.6,21.1,21.1,36.7,21.1c23.5,0,42.5-19,42.5-42.5C387.6,27.3,379.1,13.6,366.5,6.3z"/>
	</g>
	<path class="st3" d="M0.5,79.2V8.1h22.9c5.9-0.1,11.8,1.4,16.9,4.3c5,2.8,9.1,7,11.8,12.1c2.9,5.4,4.3,11.4,4.3,17.5v3.3
		c0.1,6.1-1.3,12.1-4.1,17.5c-2.6,5.1-6.7,9.3-11.6,12.1c-5.1,2.9-10.9,4.5-16.7,4.4H0.5z M17.6,21.3V66h6c4.9,0,8.7-1.8,11.3-5.3
		s3.9-8.7,4-15.6v-3.1c0-6.9-1.3-12.1-4-15.5s-6.5-5.2-11.5-5.2H17.6z M101.8,8.1H84.7v71.1h17.1V8.1z M166.6,65.4
		c-2,1.3-4.3,2-6.7,1.8c-4.4,0-7.6-0.9-9.6-2.7c-2-1.8-2.9-4.6-2.9-8.4h-17.2c-0.1,4.4,1.2,8.7,3.5,12.4c2.6,3.8,6.3,6.8,10.6,8.5
		c4.9,2.1,10.3,3.2,15.7,3.1c8.2,0,14.6-1.8,19.3-5.3c4.7-3.5,7-8.4,7-14.7c0-7.8-3.8-13.9-11.5-18.3c-3.8-2.1-7.9-3.8-12.1-5.1
		c-4.9-1.6-8.3-3.1-10.3-4.6c-2-1.5-2.9-3.2-2.9-5c0-2,1-4,2.7-5.1c2.1-1.4,4.7-2.1,7.2-2c2.6-0.1,5.2,0.7,7.2,2.4
		c1.8,1.7,2.8,4.2,2.7,6.7h17.1c0.1-4.1-1.1-8.1-3.4-11.5c-2.3-3.4-5.6-6.1-9.4-7.8c-4.3-1.9-9-2.8-13.8-2.7
		c-4.8-0.1-9.6,0.8-14.2,2.5c-3.8,1.4-7.2,3.8-9.7,7c-2.3,3-3.5,6.7-3.4,10.4c0,7.9,4.6,14.1,13.8,18.6c3.5,1.7,7.2,3.1,10.9,4.3
		c4.5,1.5,7.6,2.9,9.4,4.3c1.8,1.4,2.8,3.6,2.7,5.9C169.1,62.3,168.2,64.2,166.6,65.4z M257,55.1c-0.1,4-1.2,6.9-3.3,8.8
		c-2.1,1.9-5.1,2.8-9,2.8c-4.7,0-7.9-1.6-9.8-4.9c-1.9-3.3-2.9-8.7-2.9-16.3v-5c0.1-7,1.1-12.1,3.1-15.3s5.1-4.8,9.4-4.8
		c4.2,0,7.3,0.9,9.4,2.8c2.1,1.9,3.1,5,3.3,9.3h17.1c-0.7-8-3.7-14.2-8.9-18.8c-5.2-4.5-12.2-6.8-20.8-6.8
		c-5.6-0.1-11.1,1.4-15.8,4.3c-4.6,2.9-8.2,7.1-10.5,12.1c-2.5,5.8-3.8,12-3.6,18.3v3.5c0,11.1,2.7,19.7,8.1,25.8s12.7,9.1,22.1,9.1
		c5.2,0.1,10.4-1,15.1-3.1c4.2-1.9,7.8-4.9,10.3-8.8c2.5-3.9,3.9-8.5,4-13.1H257z M434.9,8.1h-19l23.7,71.1h18.7l23.9-71.1h-19.1
		L449,59.8L434.9,8.1z M554.8,36.3h-27v-15h31.9V8.1h-49.1v71.1h49V66h-31.8V49h27L554.8,36.3z M614.5,54h-9.3v25.2h-17.1V8.1h28
		c8.4,0,15,1.9,19.8,5.6s7.1,9,7.1,15.9c0,4.9-1,9-3,12.3c-2.3,3.5-5.6,6.2-9.4,7.9l14.8,28.7v0.7h-18.4L614.5,54z M605.2,40.8h10.8
		c3.3,0,5.7-0.9,7.3-2.6c1.7-2,2.6-4.5,2.5-7.2c0.2-2.6-0.7-5.2-2.5-7.2c-1.7-1.7-4.1-2.6-7.3-2.6h-10.8V40.8z M692.2,8.1h-18.4
		l22.9,45.6v25.5H714V53.6l22.9-45.6h-18.5l-13.1,30.9L692.2,8.1z"/>
</g>
</svg>
